name Walk8.mot
datacolumns 19
datarows 30
range 1.84600000 1.87500000
endheader

                time	   L_ground_force_vx	   L_ground_force_vy	   L_ground_force_vz	   L_ground_force_px	   L_ground_force_py	   L_ground_force_pz	   R_ground_force_vx	   R_ground_force_vy	   R_ground_force_vz	   R_ground_force_px	   R_ground_force_py	   R_ground_force_pz	   L_ground_torque_x	   L_ground_torque_y	   L_ground_torque_z	   R_ground_torque_x	   R_ground_torque_y	   R_ground_torque_z	
          1.84600000	         -4.16237152	        517.09313294	         18.19089309	          0.44714610	          0.00000000	          0.21776090	          0.01051565	          0.01060709	          0.00267618	         -0.00003235	          0.00000000	          0.00016861	          0.00000000	         -2.27463536	          0.00000000	          0.00000000	          0.00000088	          0.00000000	
          1.84700000	         -3.73222450	        516.21094884	         18.22190616	          0.44753641	          0.00000000	          0.21768051	          0.00873691	          0.00692230	          0.00245264	         -0.00002992	          0.00000000	          0.00015756	          0.00000000	         -2.28605806	          0.00000000	          0.00000000	          0.00000245	          0.00000000	
          1.84800000	         -3.30717410	        515.39477639	         18.26214845	          0.44793011	          0.00000000	          0.21759817	          0.00707639	          0.00352466	          0.00223883	         -0.00002758	          0.00000000	          0.00014685	          0.00000000	         -2.29693459	          0.00000000	          0.00000000	          0.00000389	          0.00000000	
          1.84900000	         -2.88691332	        514.64474488	         18.31137713	          0.44832711	          0.00000000	          0.21751387	          0.00553031	          0.00040257	          0.00203475	         -0.00002534	          0.00000000	          0.00013650	          0.00000000	         -2.30725531	          0.00000000	          0.00000000	          0.00000518	          0.00000000	
          1.85000000	         -2.47113082	        513.96097247	         18.36931627	          0.44872730	          0.00000000	          0.21742761	          0.00409479	         -0.00245558	          0.00184033	         -0.00002319	          0.00000000	          0.00012652	          0.00000000	         -2.31701113	          0.00000000	          0.00000000	          0.00000635	          0.00000000	
          1.85100000	         -2.05951140	        513.34356595	         18.43565858	          0.44913060	          0.00000000	          0.21733939	          0.00276584	         -0.00506144	          0.00165549	         -0.00002114	          0.00000000	          0.00011690	          0.00000000	         -2.32619375	          0.00000000	          0.00000000	          0.00000739	          0.00000000	
          1.85200000	         -1.65173657	        512.79261986	         18.51006722	          0.44953689	          0.00000000	          0.21724923	          0.00153944	         -0.00742662	          0.00148010	         -0.00001918	          0.00000000	          0.00010766	          0.00000000	         -2.33479589	          0.00000000	          0.00000000	          0.00000832	          0.00000000	
          1.85300000	         -1.24748525	        512.30821574	         18.59217794	          0.44994605	          0.00000000	          0.21715714	          0.00041150	         -0.00956263	          0.00131404	         -0.00001731	          0.00000000	          0.00009880	          0.00000000	         -2.34281176	          0.00000000	          0.00000000	          0.00000914	          0.00000000	
          1.85400000	         -0.84643457	        511.89042191	         18.68160149	          0.45035795	          0.00000000	          0.21706312	         -0.00062210	         -0.01148090	          0.00115713	         -0.00001554	          0.00000000	          0.00009032	          0.00000000	         -2.35023734	          0.00000000	          0.00000000	          0.00000985	          0.00000000	
          1.85500000	         -0.44826075	        511.53929323	         18.77792640	          0.45077244	          0.00000000	          0.21696719	         -0.00156546	         -0.01319268	          0.00100919	         -0.00001386	          0.00000000	          0.00008222	          0.00000000	         -2.35707062	          0.00000000	          0.00000000	          0.00001046	          0.00000000	
          1.85600000	         -0.05264022	        511.25487060	         18.88072183	          0.45118938	          0.00000000	          0.21686936	         -0.00242270	         -0.01470907	          0.00087001	         -0.00001227	          0.00000000	          0.00007450	          0.00000000	         -2.36331163	          0.00000000	          0.00000000	          0.00001099	          0.00000000	
          1.85700000	          0.34074921	        511.03717946	         18.98954056	          0.45160864	          0.00000000	          0.21676967	         -0.00319790	         -0.01604095	          0.00073938	         -0.00001077	          0.00000000	          0.00006715	          0.00000000	         -2.36896233	          0.00000000	          0.00000000	          0.00001142	          0.00000000	
          1.85800000	          0.73222715	        510.88622765	         19.10392179	          0.45203006	          0.00000000	          0.21666813	         -0.00389511	         -0.01719897	          0.00061706	         -0.00000936	          0.00000000	          0.00006018	          0.00000000	         -2.37402648	          0.00000000	          0.00000000	          0.00001178	          0.00000000	
          1.85900000	          1.12210920	        510.80200296	         19.22339393	          0.45245351	          0.00000000	          0.21656477	         -0.00451831	         -0.01819353	          0.00050281	         -0.00000803	          0.00000000	          0.00005357	          0.00000000	         -2.37850955	          0.00000000	          0.00000000	          0.00001206	          0.00000000	
          1.86000000	          1.51070547	        510.78447107	         19.34747713	          0.45287886	          0.00000000	          0.21645962	         -0.00507146	         -0.01903479	          0.00039637	         -0.00000679	          0.00000000	          0.00004731	          0.00000000	         -2.38241869	          0.00000000	          0.00000000	          0.00001228	          0.00000000	
          1.86100000	          1.89831882	        510.83357389	         19.47568579	          0.45330596	          0.00000000	          0.21635272	         -0.00555841	         -0.01973260	          0.00029749	         -0.00000562	          0.00000000	          0.00004142	          0.00000000	         -2.38576285	          0.00000000	          0.00000000	          0.00001242	          0.00000000	
          1.86200000	          2.28524321	        510.94922810	         19.60753077	          0.45373469	          0.00000000	          0.21624411	         -0.00598296	         -0.02029650	          0.00020589	         -0.00000453	          0.00000000	          0.00003586	          0.00000000	         -2.38855276	          0.00000000	          0.00000000	          0.00001251	          0.00000000	
          1.86300000	          2.67176196	        511.13132300	         19.74252146	          0.45416493	          0.00000000	          0.21613382	         -0.00634880	         -0.02073577	          0.00012130	         -0.00000352	          0.00000000	          0.00003065	          0.00000000	         -2.39080109	          0.00000000	          0.00000000	          0.00001255	          0.00000000	
          1.86400000	          3.05814596	        511.37971730	         19.88016748	          0.45459655	          0.00000000	          0.21602192	         -0.00665954	         -0.02105933	          0.00004344	         -0.00000258	          0.00000000	          0.00002576	          0.00000000	         -2.39252236	          0.00000000	          0.00000000	          0.00001253	          0.00000000	
          1.86500000	          3.44465189	        511.69423459	         20.01998023	          0.45502946	          0.00000000	          0.21590846	         -0.00691870	         -0.02127580	         -0.00002796	         -0.00000171	          0.00000000	          0.00002119	          0.00000000	         -2.39373294	          0.00000000	          0.00000000	          0.00001247	          0.00000000	
          1.86600000	          3.83152027	        512.07465803	         20.16147425	          0.45546354	          0.00000000	          0.21579351	         -0.00712968	         -0.02139348	         -0.00009318	         -0.00000091	          0.00000000	          0.00001692	          0.00000000	         -2.39445090	          0.00000000	          0.00000000	          0.00001236	          0.00000000	
          1.86700000	          4.21897348	        512.52072555	         20.30416856	          0.45589871	          0.00000000	          0.21567714	         -0.00729578	         -0.02142030	         -0.00015251	         -0.00000017	          0.00000000	          0.00001296	          0.00000000	         -2.39469590	          0.00000000	          0.00000000	          0.00001222	          0.00000000	
          1.86800000	          4.60721379	        513.03212657	         20.44758791	          0.45633489	          0.00000000	          0.21555942	         -0.00742019	         -0.02136390	         -0.00020622	          0.00000050	          0.00000000	          0.00000928	          0.00000000	         -2.39448889	          0.00000000	          0.00000000	          0.00001204	          0.00000000	
          1.86900000	          4.99642167	        513.60850071	         20.59126408	          0.45677199	          0.00000000	          0.21544043	         -0.00750598	         -0.02123157	         -0.00025458	          0.00000112	          0.00000000	          0.00000589	          0.00000000	         -2.39385197	          0.00000000	          0.00000000	          0.00001184	          0.00000000	
          1.87000000	          5.38675426	        514.24943791	         20.73473722	          0.45720996	          0.00000000	          0.21532024	         -0.00755611	         -0.02103026	         -0.00029786	          0.00000168	          0.00000000	          0.00000276	          0.00000000	         -2.39280819	          0.00000000	          0.00000000	          0.00001160	          0.00000000	
          1.87100000	          5.77834430	        514.95447881	         20.87755735	          0.45764875	          0.00000000	          0.21519892	         -0.00757343	         -0.02076660	         -0.00033634	          0.00000219	          0.00000000	         -0.00000012	          0.00000000	         -2.39138139	          0.00000000	          0.00000000	          0.00001134	          0.00000000	
          1.87200000	          6.17129927	        515.72311439	         21.01928601	          0.45808832	          0.00000000	          0.21507655	         -0.00756066	         -0.02044689	         -0.00037028	          0.00000264	          0.00000000	         -0.00000275	          0.00000000	         -2.38959618	          0.00000000	          0.00000000	          0.00001107	          0.00000000	
          1.87300000	          6.56570070	        516.55478470	         21.15949803	          0.45852865	          0.00000000	          0.21495318	         -0.00752040	         -0.02007709	         -0.00039994	          0.00000305	          0.00000000	         -0.00000515	          0.00000000	         -2.38747801	          0.00000000	          0.00000000	          0.00001077	          0.00000000	
          1.87400000	          6.96160358	        517.44887748	         21.29778328	          0.45896971	          0.00000000	          0.21482890	         -0.00745515	         -0.01966287	         -0.00042556	          0.00000340	          0.00000000	         -0.00000732	          0.00000000	         -2.38505305	          0.00000000	          0.00000000	          0.00001046	          0.00000000	
          1.87500000	          7.35903558	        518.40472754	         21.43374852	          0.45941151	          0.00000000	          0.21470377	         -0.00736727	         -0.01920956	         -0.00044739	          0.00000372	          0.00000000	         -0.00000928	          0.00000000	         -2.38234815	          0.00000000	          0.00000000	          0.00001013	          0.00000000	
